<svg xmlns="http://www.w3.org/2000/svg" viewBox="0 0 64 64"><rect x="2" y="2" width="60" height="60" rx="16" fill="#182e32"/><path d="M13 25 12 11q12-2 15 12m10 0q3-14 15-12l-1 14" fill="#f0b4a6" stroke="#e7c492" stroke-width="2"/><path d="M12 34c0-13 8-22 20-22s20 9 20 22c0 13-9 21-20 21S12 47 12 34" fill="#f4c8b4"/><path d="M18 24h28l-3 8H21z" fill="#25464b"/><path d="m23 26 5 2m8 0 5-2" stroke="#83d3c0" stroke-width="2" stroke-linecap="round"/><ellipse cx="32" cy="41" rx="12" ry="9" fill="#df928d"/><path d="M27 39v4m10-4v4" stroke="#6f4249" stroke-width="3" stroke-linecap="round"/><path d="M27 54h10" stroke="#e7c492" stroke-width="3" stroke-linecap="round"/></svg>
